<svg width="39" height="33" viewBox="0 0 39 33" fill="none" xmlns="http://www.w3.org/2000/svg">
<path d="M34.1383 31.2344H4.82969C3.19609 31.2344 1.88281 29.9211 1.88281 28.2875V3.23906C1.88281 2.43828 2.55547 1.76562 3.35625 1.76562H29.75C30.5508 1.76562 31.2234 2.43828 31.2234 3.23906V10.6383V28.3195C31.2234 29.9211 32.5367 31.2344 34.1383 31.2344C35.7719 31.2344 37.0852 29.9211 37.0852 28.2875V12.0797C37.0852 11.2789 36.4125 10.6062 35.6117 10.6062H34.1383" fill="white"/>
<path d="M6.36719 6.21875H26.5789C27.1234 6.21875 27.5398 6.63516 27.5398 7.17969V12.593C27.5398 13.1375 27.1234 13.5539 26.5789 13.5539H6.36719C5.82266 13.5539 5.40625 13.1375 5.40625 12.593V7.17969C5.40625 6.63516 5.82266 6.21875 6.36719 6.21875ZM34.1383 31.2352C35.7719 31.2352 37.0852 29.9219 37.0852 28.2883V12.0805C37.0852 11.2797 36.4125 10.607 35.6117 10.607H31.1914V28.2883C31.2234 29.9219 32.5367 31.2352 34.1383 31.2352Z" fill="black"/>
<path d="M34.1383 32.1953H4.82969C2.68359 32.1953 0.921875 30.4336 0.921875 28.2875V3.23906C0.921875 1.89375 2.01094 0.804688 3.35625 0.804688H29.75C31.0953 0.804688 32.1844 1.89375 32.1844 3.23906V28.3195C32.1844 29.4086 33.0812 30.3055 34.1703 30.3055C35.2594 30.3055 36.1562 29.4086 36.1562 28.3195V12.0797C36.1562 11.7914 35.932 11.5672 35.6437 11.5672H34.1703C33.6258 11.5672 33.2094 11.1508 33.2094 10.6062C33.2094 10.0617 33.6258 9.64531 34.1703 9.64531H35.6437C36.9891 9.64531 38.0781 10.7344 38.0781 12.0797V28.2875C38.0461 30.4656 36.2844 32.1953 34.1383 32.1953ZM3.35625 2.72656C3.06797 2.72656 2.84375 2.95078 2.84375 3.23906V28.3195C2.84375 29.4086 3.74063 30.3055 4.82969 30.3055H30.807C30.4547 29.7289 30.2625 29.0562 30.2625 28.3195V3.23906C30.2625 2.95078 30.0383 2.72656 29.75 2.72656H3.35625Z" fill="black"/>
<path d="M12.1969 19.3516H6.36719C5.82266 19.3516 5.40625 18.9352 5.40625 18.3906C5.40625 17.8461 5.82266 17.4297 6.36719 17.4297H12.1969C12.7414 17.4297 13.1578 17.8461 13.1578 18.3906C13.1578 18.9352 12.7414 19.3516 12.1969 19.3516ZM12.1969 27.6156H6.36719C5.82266 27.6156 5.40625 27.1992 5.40625 26.6547C5.40625 26.1102 5.82266 25.6937 6.36719 25.6937H12.1969C12.7414 25.6937 13.1578 26.1102 13.1578 26.6547C13.1578 27.1992 12.7414 27.6156 12.1969 27.6156ZM12.1969 23.4516H6.36719C5.82266 23.4516 5.40625 23.0352 5.40625 22.4906C5.40625 21.9461 5.82266 21.5297 6.36719 21.5297H12.1969C12.7414 21.5297 13.1578 21.9461 13.1578 22.4906C13.1578 23.0352 12.7414 23.4516 12.1969 23.4516Z" fill="black"/>
<path d="M26.5469 27.7422H17.5781C17.0336 27.7422 16.6172 27.3258 16.6172 26.7812V17.9727C16.6172 17.4281 17.0336 17.0117 17.5781 17.0117H26.5469C27.0914 17.0117 27.5078 17.4281 27.5078 17.9727V26.7812C27.5078 27.2937 27.0914 27.7422 26.5469 27.7422ZM18.5391 25.8203H25.5859V18.9336H18.5391V25.8203Z" fill="black"/>
</svg>
